<svg width="36" height="36" viewBox="0 0 36 36" fill="none" xmlns="http://www.w3.org/2000/svg">
<path d="M23.0849 7.81493L25.1999 12.0449C25.4849 12.6299 26.2499 13.1849 26.8949 13.3049L30.7199 13.9349C33.1649 14.3399 33.7349 16.1099 31.9799 17.8799L28.9949 20.8649C28.4999 21.3599 28.2149 22.3349 28.3799 23.0399L29.2349 26.7299C29.9099 29.6399 28.3499 30.7799 25.7849 29.2499L22.1999 27.1199C21.5549 26.7299 20.4749 26.7299 19.8299 27.1199L16.2449 29.2499C13.6799 30.7649 12.1199 29.6399 12.7949 26.7299L13.6499 23.0399C13.7849 22.3199 13.4999 21.3449 13.0049 20.8499L10.0199 17.8649C8.26491 16.1099 8.83491 14.3399 11.2799 13.9199L15.1049 13.2899C15.7499 13.1849 16.5149 12.6149 16.7999 12.0299L18.9149 7.79993C20.0699 5.51993 21.9299 5.51993 23.0849 7.81493Z" fill="#65C8C1"/>
<path d="M12 8.625H3C2.385 8.625 1.875 8.115 1.875 7.5C1.875 6.885 2.385 6.375 3 6.375H12C12.615 6.375 13.125 6.885 13.125 7.5C13.125 8.115 12.615 8.625 12 8.625Z" fill="#65C8C1"/>
<path d="M7.5 29.625H3C2.385 29.625 1.875 29.115 1.875 28.5C1.875 27.885 2.385 27.375 3 27.375H7.5C8.115 27.375 8.625 27.885 8.625 28.5C8.625 29.115 8.115 29.625 7.5 29.625Z" fill="#65C8C1"/>
<path d="M4.5 19.125H3C2.385 19.125 1.875 18.615 1.875 18C1.875 17.385 2.385 16.875 3 16.875H4.5C5.115 16.875 5.625 17.385 5.625 18C5.625 18.615 5.115 19.125 4.5 19.125Z" fill="#65C8C1"/>
</svg>
