<svg width="1348" height="105" viewBox="0 0 1348 105" fill="none" xmlns="http://www.w3.org/2000/svg">
<path d="M296.5 47.4643C250.1 66.9368 236.833 87.2207 236 94.9286L319 100.405C321.167 104.868 325.3 110.02 324.5 94.9286C323.5 76.0645 359 69.3709 379.5 57.2005C395.9 47.4643 402.667 15.0101 404 0H352.5C353.167 7.70787 342.9 27.9918 296.5 47.4643Z" fill="url(#paint0_linear_9_39)" fill-opacity="0.6"/>
<path d="M414.5 47.4643C368.1 66.9368 354.833 87.2207 354 94.9286L437 100.405C439.167 104.868 443.3 110.02 442.5 94.9286C441.5 76.0645 477 69.3709 497.5 57.2005C513.9 47.4643 520.667 15.0101 522 0H470.5C471.167 7.70787 460.9 27.9918 414.5 47.4643Z" fill="url(#paint1_linear_9_39)" fill-opacity="0.6"/>
<path d="M532.5 47.4643C486.1 66.9368 472.833 87.2207 472 94.9286L555 100.405C557.167 104.868 561.3 110.02 560.5 94.9286C559.5 76.0645 595 69.3709 615.5 57.2005C631.9 47.4643 638.667 15.0101 640 0H588.5C589.167 7.70787 578.9 27.9918 532.5 47.4643Z" fill="url(#paint2_linear_9_39)" fill-opacity="0.6"/>
<path d="M178.5 47.4643C132.1 66.9368 118.833 87.2207 118 94.9286L201 100.405C203.167 104.868 207.3 110.02 206.5 94.9286C205.5 76.0645 241 69.3709 261.5 57.2005C277.9 47.4643 284.667 15.0101 286 0H234.5C235.167 7.70787 224.9 27.9918 178.5 47.4643Z" fill="url(#paint3_linear_9_39)" fill-opacity="0.6"/>
<path d="M60.5 47.4643C14.1 66.9368 0.833333 87.2207 0 94.9286L83 100.405C85.1667 104.868 89.3 110.02 88.5 94.9286C87.5 76.0645 123 69.3709 143.5 57.2005C159.9 47.4643 166.667 15.0101 168 0H116.5C117.167 7.70787 106.9 27.9918 60.5 47.4643Z" fill="url(#paint4_linear_9_39)" fill-opacity="0.6"/>
<path d="M886.5 47.4643C840.1 66.9368 826.833 87.2207 826 94.9286L909 100.405C911.167 104.868 915.3 110.02 914.5 94.9286C913.5 76.0645 949 69.3709 969.5 57.2005C985.9 47.4643 992.667 15.0101 994 0H942.5C943.167 7.70787 932.9 27.9918 886.5 47.4643Z" fill="url(#paint5_linear_9_39)" fill-opacity="0.6"/>
<path d="M1004.5 47.4643C958.1 66.9368 944.833 87.2207 944 94.9286L1027 100.405C1029.17 104.868 1033.3 110.02 1032.5 94.9286C1031.5 76.0645 1067 69.3709 1087.5 57.2005C1103.9 47.4643 1110.67 15.0101 1112 0H1060.5C1061.17 7.70787 1050.9 27.9918 1004.5 47.4643Z" fill="url(#paint6_linear_9_39)" fill-opacity="0.6"/>
<path d="M1122.5 47.4643C1076.1 66.9368 1062.83 87.2207 1062 94.9286L1145 100.405C1147.17 104.868 1151.3 110.02 1150.5 94.9286C1149.5 76.0645 1185 69.3709 1205.5 57.2005C1221.9 47.4643 1228.67 15.0101 1230 0H1178.5C1179.17 7.70787 1168.9 27.9918 1122.5 47.4643Z" fill="url(#paint7_linear_9_39)" fill-opacity="0.6"/>
<path d="M768.5 47.4643C722.1 66.9368 708.833 87.2207 708 94.9286L791 100.405C793.167 104.868 797.3 110.02 796.5 94.9286C795.5 76.0645 831 69.3709 851.5 57.2005C867.9 47.4643 874.667 15.0101 876 0H824.5C825.167 7.70787 814.9 27.9918 768.5 47.4643Z" fill="url(#paint8_linear_9_39)" fill-opacity="0.6"/>
<path d="M650.5 47.4643C604.1 66.9368 590.833 87.2207 590 94.9286L673 100.405C675.167 104.868 679.3 110.02 678.5 94.9286C677.5 76.0645 713 69.3709 733.5 57.2005C749.9 47.4643 756.667 15.0101 758 0H706.5C707.167 7.70787 696.9 27.9918 650.5 47.4643Z" fill="url(#paint9_linear_9_39)" fill-opacity="0.6"/>
<path d="M1240.5 47.4643C1194.1 66.9368 1180.83 87.2207 1180 94.9286L1263 100.405C1265.17 104.868 1269.3 110.02 1268.5 94.9286C1267.5 76.0645 1303 69.3709 1323.5 57.2005C1339.9 47.4643 1346.67 15.0101 1348 0H1296.5C1297.17 7.70787 1286.9 27.9918 1240.5 47.4643Z" fill="url(#paint10_linear_9_39)" fill-opacity="0.6"/>
<defs>
<linearGradient id="paint0_linear_9_39" x1="274.5" y1="12.5" x2="377.5" y2="77.5" gradientUnits="userSpaceOnUse">
<stop stop-color="white" stop-opacity="0.1"/>
<stop offset="1" stop-color="white" stop-opacity="0"/>
</linearGradient>
<linearGradient id="paint1_linear_9_39" x1="392.5" y1="12.5" x2="495.5" y2="77.5" gradientUnits="userSpaceOnUse">
<stop stop-color="white" stop-opacity="0.1"/>
<stop offset="1" stop-color="white" stop-opacity="0"/>
</linearGradient>
<linearGradient id="paint2_linear_9_39" x1="510.5" y1="12.5" x2="613.5" y2="77.5" gradientUnits="userSpaceOnUse">
<stop stop-color="white" stop-opacity="0.1"/>
<stop offset="1" stop-color="white" stop-opacity="0"/>
</linearGradient>
<linearGradient id="paint3_linear_9_39" x1="156.5" y1="12.5" x2="259.5" y2="77.5" gradientUnits="userSpaceOnUse">
<stop stop-color="white" stop-opacity="0.1"/>
<stop offset="1" stop-color="white" stop-opacity="0"/>
</linearGradient>
<linearGradient id="paint4_linear_9_39" x1="38.5" y1="12.5" x2="141.5" y2="77.5" gradientUnits="userSpaceOnUse">
<stop stop-color="white" stop-opacity="0.1"/>
<stop offset="1" stop-color="white" stop-opacity="0"/>
</linearGradient>
<linearGradient id="paint5_linear_9_39" x1="864.5" y1="12.5" x2="967.5" y2="77.5" gradientUnits="userSpaceOnUse">
<stop stop-color="white" stop-opacity="0.1"/>
<stop offset="1" stop-color="white" stop-opacity="0"/>
</linearGradient>
<linearGradient id="paint6_linear_9_39" x1="982.5" y1="12.5" x2="1085.5" y2="77.5" gradientUnits="userSpaceOnUse">
<stop stop-color="white" stop-opacity="0.1"/>
<stop offset="1" stop-color="white" stop-opacity="0"/>
</linearGradient>
<linearGradient id="paint7_linear_9_39" x1="1100.5" y1="12.5" x2="1203.5" y2="77.5" gradientUnits="userSpaceOnUse">
<stop stop-color="white" stop-opacity="0.1"/>
<stop offset="1" stop-color="white" stop-opacity="0"/>
</linearGradient>
<linearGradient id="paint8_linear_9_39" x1="746.5" y1="12.5" x2="849.5" y2="77.5" gradientUnits="userSpaceOnUse">
<stop stop-color="white" stop-opacity="0.1"/>
<stop offset="1" stop-color="white" stop-opacity="0"/>
</linearGradient>
<linearGradient id="paint9_linear_9_39" x1="628.5" y1="12.5" x2="731.5" y2="77.5" gradientUnits="userSpaceOnUse">
<stop stop-color="white" stop-opacity="0.1"/>
<stop offset="1" stop-color="white" stop-opacity="0"/>
</linearGradient>
<linearGradient id="paint10_linear_9_39" x1="1218.5" y1="12.5" x2="1321.5" y2="77.5" gradientUnits="userSpaceOnUse">
<stop stop-color="white" stop-opacity="0.1"/>
<stop offset="1" stop-color="white" stop-opacity="0"/>
</linearGradient>
</defs>
</svg>
