<svg width="36" height="36" viewBox="0 0 36 36" fill="none" xmlns="http://www.w3.org/2000/svg">
<path d="M12.585 27.7351V12.4951C12.585 11.8951 12.765 11.3101 13.095 10.8151L17.19 4.72508C17.835 3.75008 19.44 3.06008 20.805 3.57008C22.275 4.06508 23.25 5.71508 22.935 7.18508L22.155 12.0901C22.095 12.5401 22.215 12.9451 22.47 13.2601C22.725 13.5451 23.1 13.7251 23.505 13.7251H29.67C30.855 13.7251 31.875 14.2051 32.475 15.0451C33.045 15.8551 33.15 16.9051 32.775 17.9701L29.085 29.2051C28.62 31.0651 26.595 32.5801 24.585 32.5801H18.735C17.73 32.5801 16.32 32.2351 15.675 31.5901L13.755 30.1051C13.02 29.5501 12.585 28.6651 12.585 27.7351Z" fill="#65C8C1"/>
<path d="M7.815 9.57007H6.27C3.945 9.57007 3 10.4701 3 12.6901V27.7801C3 30.0001 3.945 30.9001 6.27 30.9001H7.815C10.14 30.9001 11.085 30.0001 11.085 27.7801V12.6901C11.085 10.4701 10.14 9.57007 7.815 9.57007Z" fill="#65C8C1"/>
</svg>
